<svg xmlns="http://www.w3.org/2000/svg" viewBox="0 0 320.06 247.35"><defs><style>.cls-1{fill:#F1F2F3;}</style></defs><g id="Layer_2" data-name="Layer 2"><g id="Layer_1-2" data-name="Layer 1"><g id="Layer_2-2" data-name="Layer 2"><g id="Draw_Layer" data-name="Draw Layer"><path class="cls-1" d="M147.74,218.85H13.53C6.06,218.85,0,225.23,0,233.1s6.06,14.25,13.53,14.25h293c7.47,0,13.53-6.38,13.53-14.25s-6.06-14.25-13.53-14.25Z"/><path class="cls-1" d="M147.57.88c-3.2,1.19-6.68,4-7.92,7.27-.05.17-.12.33-.19.51q-18.78,51.6-37.6,103.18-21.57,59.1-43.14,118.31c-.37,1.18-.8,2.35-1.13,3.52a14,14,0,0,0-.11,4.29c.29,2.35.45,3.73,1.47,4.76,1.19,1.19,3.17,1.25,7.13,1.37,2.4.07,2.44-.13,4.28,0,3.2.22,4.28.9,6.06,1.07s4.52-.21,8.07-2.86l47.84-131.23,33.09-90.76,1.14-3.47A14.24,14.24,0,0,0,155.17.23h0a16.18,16.18,0,0,0-3.93-.18A14.05,14.05,0,0,0,147.57.88Z"/><path class="cls-1" d="M145.81,1.91a14.4,14.4,0,0,0-6.55,8.52c-2,7.32,2.41,15.68,10,17.52L232,48.2l4.82,1.18a14.53,14.53,0,0,0,11-1.44,14.29,14.29,0,0,0,6.54-8.51c2-7.32-2.41-15.69-10-17.53L199.71,11,156.79.47A16.12,16.12,0,0,0,153,0,14.08,14.08,0,0,0,145.81,1.91Z"/><path class="cls-1" d="M235.74,23.31l-56.1,21.14-3.45,1.43a14.26,14.26,0,0,0,0,24.61c3.05,1.78,7.56,2.73,11,1.44l56.1-21.13,3.41-1.44a14.26,14.26,0,0,0,0-24.61,15.29,15.29,0,0,0-7.44-2,9.9,9.9,0,0,0-3.54.59Z"/><path class="cls-1" d="M176.86,45.65a14.32,14.32,0,0,0-7.29,8c-.26,1.24-.54,2.48-.82,3.72a14.18,14.18,0,0,0,1.3,7.34q26.12,69.78,52.22,139.56c6.84,18.29,10.29,27.42,10.3,27.5.07,1.45.17,5.83,3.16,8.47s7.69,2.12,7.89,2.09c3.17-.48,3.3-2.12,7.13-3.56,1.12-.42,7.35-2.77,11.22.33a8.05,8.05,0,0,1,2.68,4.66,9.25,9.25,0,0,1-2.25-6.56,7.94,7.94,0,0,1,.41-1.86,14.12,14.12,0,0,0-1.3-7.33l-44.75-119.6-20.93-56a14.25,14.25,0,0,0-19-6.8h0Z"/></g></g></g></g></svg>