<svg width="167" height="444" viewBox="0 0 167 444" fill="none" xmlns="http://www.w3.org/2000/svg">
<g opacity="0.2">
<circle cx="124.179" cy="440.934" r="1.54947" transform="rotate(180 124.179 440.934)" fill="#F7F7F7"/>
<circle cx="119.528" cy="427.652" r="1.77082" transform="rotate(180 119.528 427.652)" fill="#F7F7F7"/>
<circle cx="114.876" cy="414.372" r="1.32811" transform="rotate(180 114.876 414.372)" fill="#F7F7F7"/>
<circle cx="110.898" cy="440.934" r="1.99217" transform="rotate(180 110.898 440.934)" fill="#F7F7F7"/>
<circle cx="106.247" cy="427.652" r="1.32811" transform="rotate(180 106.247 427.652)" fill="#F7F7F7"/>
<circle cx="101.595" cy="414.372" r="1.10676" transform="rotate(180 101.595 414.372)" fill="#F7F7F7"/>
<circle cx="97.6166" cy="440.934" r="1.54947" transform="rotate(180 97.6166 440.934)" fill="#F7F7F7"/>
<circle cx="92.9652" cy="427.652" r="1.54947" transform="rotate(180 92.9652 427.652)" fill="#F7F7F7"/>
<circle cx="88.3141" cy="414.372" r="1.77082" transform="rotate(180 88.3141 414.372)" fill="#F7F7F7"/>
<circle cx="84.3355" cy="440.934" r="1.99217" transform="rotate(180 84.3355 440.934)" fill="#F7F7F7"/>
<circle cx="79.6843" cy="427.653" r="1.10676" transform="rotate(180 79.6843 427.653)" fill="#F7F7F7"/>
<circle cx="75.0329" cy="414.372" r="1.77082" transform="rotate(180 75.0329 414.372)" fill="#F7F7F7"/>
<circle cx="84.3355" cy="401.09" r="1.99217" transform="rotate(180 84.3355 401.09)" fill="#F7F7F7"/>
<circle cx="79.6841" cy="387.809" r="1.32811" transform="rotate(180 79.6841 387.809)" fill="#F7F7F7"/>
<circle cx="71.0545" cy="440.934" r="2.21352" transform="rotate(180 71.0545 440.934)" fill="#F7F7F7"/>
<circle cx="66.4032" cy="427.652" r="1.54947" transform="rotate(180 66.4032 427.652)" fill="#F7F7F7"/>
<circle cx="61.752" cy="414.371" r="1.99217" transform="rotate(180 61.752 414.371)" fill="#F7F7F7"/>
<circle cx="71.0545" cy="401.09" r="1.54947" transform="rotate(180 71.0545 401.09)" fill="#F7F7F7"/>
<circle cx="66.403" cy="387.809" r="1.77082" transform="rotate(180 66.403 387.809)" fill="#F7F7F7"/>
<circle cx="57.7733" cy="440.934" r="1.54947" transform="rotate(180 57.7733 440.934)" fill="#F7F7F7"/>
<circle cx="53.1221" cy="427.653" r="2.65623" transform="rotate(180 53.1221 427.653)" fill="#F7F7F7"/>
<circle cx="48.4707" cy="414.372" r="1.32811" transform="rotate(180 48.4707 414.372)" fill="#F7F7F7"/>
<circle cx="57.7736" cy="401.09" r="1.10676" transform="rotate(180 57.7736 401.09)" fill="#F7F7F7"/>
<circle cx="53.1223" cy="387.809" r="2.43487" transform="rotate(180 53.1223 387.809)" fill="#F7F7F7"/>
<circle cx="44.4924" cy="440.934" r="1.10676" transform="rotate(180 44.4924 440.934)" fill="#F7F7F7"/>
<circle cx="39.8412" cy="427.652" r="1.54947" transform="rotate(180 39.8412 427.652)" fill="#F7F7F7"/>
<circle cx="35.1896" cy="414.372" r="1.10676" transform="rotate(180 35.1896 414.372)" fill="#F7F7F7"/>
<circle cx="44.4922" cy="401.09" r="1.32811" transform="rotate(180 44.4922 401.09)" fill="#F7F7F7"/>
<circle cx="39.8408" cy="387.809" r="1.99217" transform="rotate(180 39.8408 387.809)" fill="#F7F7F7"/>
<circle cx="-0.00229275" cy="387.809" r="1.54947" fill="#F7F7F7"/>
<circle cx="4.64907" cy="401.09" r="2.21352" fill="#F7F7F7"/>
<circle cx="-0.00245976" cy="427.653" r="1.99217" fill="#F7F7F7"/>
<circle cx="4.64859" cy="440.934" r="1.54947" fill="#F7F7F7"/>
<circle cx="8.6271" cy="374.528" r="1.54947" fill="#F7F7F7"/>
<circle cx="13.2785" cy="387.809" r="2.21352" fill="#F7F7F7"/>
<circle cx="17.9298" cy="401.091" r="1.54947" fill="#F7F7F7"/>
<circle cx="8.62742" cy="414.371" r="2.65623" fill="#F7F7F7"/>
<circle cx="13.2788" cy="427.653" r="1.32811" fill="#F7F7F7"/>
<circle cx="17.93" cy="440.934" r="1.10676" fill="#F7F7F7"/>
<circle cx="21.9082" cy="374.528" r="1.32811" fill="#F7F7F7"/>
<circle cx="26.5599" cy="387.809" r="1.77082" fill="#F7F7F7"/>
<circle cx="31.2113" cy="401.09" r="1.10676" fill="#F7F7F7"/>
<circle cx="21.9084" cy="414.371" r="1.54947" fill="#F7F7F7"/>
<circle cx="26.5599" cy="427.652" r="1.10676" fill="#F7F7F7"/>
<circle cx="31.2109" cy="440.933" r="1.32811" fill="#F7F7F7"/>
<circle cx="-0.00245976" cy="29.2187" r="1.99217" fill="#F7F7F7"/>
<circle cx="4.64859" cy="42.4997" r="1.54947" fill="#F7F7F7"/>
<circle cx="-0.00262046" cy="69.0621" r="1.77082" fill="#F7F7F7"/>
<circle cx="4.64891" cy="82.3435" r="1.32811" fill="#F7F7F7"/>
<circle cx="13.2788" cy="29.2183" r="1.32811" fill="#F7F7F7"/>
<circle cx="17.93" cy="42.4998" r="1.10676" fill="#F7F7F7"/>
<circle cx="8.62726" cy="55.7811" r="2.43487" fill="#F7F7F7"/>
<circle cx="13.2788" cy="69.0618" r="1.99217" fill="#F7F7F7"/>
<circle cx="17.9302" cy="82.343" r="1.99217" fill="#F7F7F7"/>
<circle cx="26.5599" cy="29.2186" r="1.10676" fill="#F7F7F7"/>
<circle cx="31.2109" cy="42.4995" r="1.32811" fill="#F7F7F7"/>
<circle cx="21.9082" cy="55.7812" r="1.99217" fill="#F7F7F7"/>
<circle cx="26.5597" cy="69.0619" r="1.54947" fill="#F7F7F7"/>
<circle cx="31.2109" cy="82.3435" r="2.65623" fill="#F7F7F7"/>
<circle cx="154.72" cy="55.7809" r="1.77082" transform="rotate(180 154.72 55.7809)" fill="#F7F7F7"/>
<circle cx="164.022" cy="42.4995" r="1.99217" transform="rotate(180 164.022 42.4995)" fill="#F7F7F7"/>
<circle cx="146.09" cy="69.0619" r="1.10676" transform="rotate(180 146.09 69.0619)" fill="#F7F7F7"/>
<circle cx="141.439" cy="55.7809" r="1.77082" transform="rotate(180 141.439 55.7809)" fill="#F7F7F7"/>
<circle cx="150.741" cy="42.5002" r="1.10676" transform="rotate(180 150.741 42.5002)" fill="#F7F7F7"/>
<circle cx="132.809" cy="69.0623" r="1.99217" transform="rotate(180 132.809 69.0623)" fill="#F7F7F7"/>
<circle cx="128.157" cy="55.7804" r="1.10676" transform="rotate(180 128.157 55.7804)" fill="#F7F7F7"/>
<circle cx="137.46" cy="42.4994" r="1.54947" transform="rotate(180 137.46 42.4994)" fill="#F7F7F7"/>
<circle cx="124.179" cy="82.3434" r="1.54947" transform="rotate(180 124.179 82.3434)" fill="#F7F7F7"/>
<circle cx="119.528" cy="69.0621" r="1.54947" transform="rotate(180 119.528 69.0621)" fill="#F7F7F7"/>
<circle cx="114.876" cy="55.7808" r="2.65623" transform="rotate(180 114.876 55.7808)" fill="#F7F7F7"/>
<circle cx="124.179" cy="42.4994" r="1.54947" transform="rotate(180 124.179 42.4994)" fill="#F7F7F7"/>
<circle cx="110.898" cy="82.3432" r="1.10676" transform="rotate(180 110.898 82.3432)" fill="#F7F7F7"/>
<circle cx="106.247" cy="69.0623" r="1.99217" transform="rotate(180 106.247 69.0623)" fill="#F7F7F7"/>
<circle cx="101.595" cy="55.7809" r="1.77082" transform="rotate(180 101.595 55.7809)" fill="#F7F7F7"/>
<circle cx="110.898" cy="42.4995" r="1.99217" transform="rotate(180 110.898 42.4995)" fill="#F7F7F7"/>
<circle cx="97.6166" cy="82.3434" r="1.54947" transform="rotate(180 97.6166 82.3434)" fill="#F7F7F7"/>
<circle cx="92.9653" cy="69.0623" r="1.99217" transform="rotate(180 92.9653 69.0623)" fill="#F7F7F7"/>
<circle cx="88.3138" cy="55.7811" r="2.21352" transform="rotate(180 88.3138 55.7811)" fill="#F7F7F7"/>
<circle cx="97.6166" cy="42.4994" r="1.54947" transform="rotate(180 97.6166 42.4994)" fill="#F7F7F7"/>
<circle cx="84.3358" cy="82.3434" r="1.54947" transform="rotate(180 84.3358 82.3434)" fill="#F7F7F7"/>
<circle cx="79.6841" cy="69.0623" r="1.32811" transform="rotate(180 79.6841 69.0623)" fill="#F7F7F7"/>
<circle cx="75.0327" cy="55.7808" r="1.32811" transform="rotate(180 75.0327 55.7808)" fill="#F7F7F7"/>
<circle cx="84.3355" cy="42.4995" r="1.99217" transform="rotate(180 84.3355 42.4995)" fill="#F7F7F7"/>
<circle cx="71.0542" cy="82.343" r="2.65623" transform="rotate(180 71.0542 82.343)" fill="#F7F7F7"/>
<circle cx="66.4032" cy="69.0621" r="1.54947" transform="rotate(180 66.4032 69.0621)" fill="#F7F7F7"/>
<circle cx="61.7518" cy="55.7806" r="1.54947" transform="rotate(180 61.7518 55.7806)" fill="#F7F7F7"/>
<circle cx="71.0545" cy="42.4999" r="2.21352" transform="rotate(180 71.0545 42.4999)" fill="#F7F7F7"/>
<circle cx="66.4032" cy="29.2186" r="1.54947" transform="rotate(180 66.4032 29.2186)" fill="#F7F7F7"/>
<circle cx="57.7735" cy="82.3435" r="1.99217" transform="rotate(180 57.7735 82.3435)" fill="#F7F7F7"/>
<circle cx="53.1219" cy="69.0621" r="1.54947" transform="rotate(180 53.1219 69.0621)" fill="#F7F7F7"/>
<circle cx="48.4706" cy="55.7811" r="2.21352" transform="rotate(180 48.4706 55.7811)" fill="#F7F7F7"/>
<circle cx="57.7733" cy="42.4994" r="1.54947" transform="rotate(180 57.7733 42.4994)" fill="#F7F7F7"/>
<circle cx="53.1221" cy="29.2188" r="2.65623" transform="rotate(180 53.1221 29.2188)" fill="#F7F7F7"/>
<circle cx="44.4924" cy="82.3432" r="1.10676" transform="rotate(180 44.4924 82.3432)" fill="#F7F7F7"/>
<circle cx="39.8408" cy="69.0623" r="1.32811" transform="rotate(180 39.8408 69.0623)" fill="#F7F7F7"/>
<circle cx="35.1891" cy="55.7809" r="1.77082" transform="rotate(180 35.1891 55.7809)" fill="#F7F7F7"/>
<circle cx="44.4924" cy="42.5002" r="1.10676" transform="rotate(180 44.4924 42.5002)" fill="#F7F7F7"/>
<circle cx="39.8412" cy="29.2186" r="1.54947" transform="rotate(180 39.8412 29.2186)" fill="#F7F7F7"/>
<circle cx="154.72" cy="175.312" r="1.99217" transform="rotate(180 154.72 175.312)" fill="#F7F7F7"/>
<circle cx="164.022" cy="162.03" r="2.21352" transform="rotate(180 164.022 162.03)" fill="#F7F7F7"/>
<circle cx="141.439" cy="175.311" r="1.10676" transform="rotate(180 141.439 175.311)" fill="#F7F7F7"/>
<circle cx="150.741" cy="162.03" r="1.32811" transform="rotate(180 150.741 162.03)" fill="#F7F7F7"/>
<circle cx="141.439" cy="135.468" r="1.77082" transform="rotate(180 141.439 135.468)" fill="#F7F7F7"/>
<circle cx="128.158" cy="175.311" r="1.54947" transform="rotate(180 128.158 175.311)" fill="#F7F7F7"/>
<circle cx="137.46" cy="162.03" r="2.21352" transform="rotate(180 137.46 162.03)" fill="#F7F7F7"/>
<circle cx="132.809" cy="148.749" r="1.54947" transform="rotate(180 132.809 148.749)" fill="#F7F7F7"/>
<circle cx="128.157" cy="135.468" r="2.65623" transform="rotate(180 128.157 135.468)" fill="#F7F7F7"/>
<circle cx="137.46" cy="122.187" r="1.77082" transform="rotate(180 137.46 122.187)" fill="#F7F7F7"/>
<circle cx="114.876" cy="175.311" r="1.54947" transform="rotate(180 114.876 175.311)" fill="#F7F7F7"/>
<circle cx="124.179" cy="162.03" r="1.77082" transform="rotate(180 124.179 162.03)" fill="#F7F7F7"/>
<circle cx="119.527" cy="148.749" r="1.32811" transform="rotate(180 119.527 148.749)" fill="#F7F7F7"/>
<circle cx="114.876" cy="135.468" r="1.99217" transform="rotate(180 114.876 135.468)" fill="#F7F7F7"/>
<circle cx="124.179" cy="122.187" r="1.77082" transform="rotate(180 124.179 122.187)" fill="#F7F7F7"/>
<circle cx="114.876" cy="95.6244" r="1.77082" transform="rotate(180 114.876 95.6244)" fill="#F7F7F7"/>
<circle cx="101.595" cy="175.312" r="1.99217" transform="rotate(180 101.595 175.312)" fill="#F7F7F7"/>
<circle cx="110.898" cy="162.03" r="1.32811" transform="rotate(180 110.898 162.03)" fill="#F7F7F7"/>
<circle cx="106.246" cy="148.749" r="1.10676" transform="rotate(180 106.246 148.749)" fill="#F7F7F7"/>
<circle cx="101.595" cy="135.467" r="1.54947" transform="rotate(180 101.595 135.467)" fill="#F7F7F7"/>
<circle cx="110.898" cy="122.187" r="1.32811" transform="rotate(180 110.898 122.187)" fill="#F7F7F7"/>
<circle cx="106.247" cy="108.905" r="1.99217" transform="rotate(180 106.247 108.905)" fill="#F7F7F7"/>
<circle cx="101.595" cy="95.6245" r="2.43487" transform="rotate(180 101.595 95.6245)" fill="#F7F7F7"/>
<circle cx="88.3143" cy="175.311" r="1.54947" transform="rotate(180 88.3143 175.311)" fill="#F7F7F7"/>
<circle cx="97.6166" cy="162.03" r="1.54947" transform="rotate(180 97.6166 162.03)" fill="#F7F7F7"/>
<circle cx="92.9655" cy="148.749" r="1.77082" transform="rotate(180 92.9655 148.749)" fill="#F7F7F7"/>
<circle cx="88.3141" cy="135.468" r="1.77082" transform="rotate(180 88.3141 135.468)" fill="#F7F7F7"/>
<circle cx="97.6169" cy="122.187" r="1.77082" transform="rotate(180 97.6169 122.187)" fill="#F7F7F7"/>
<circle cx="92.9653" cy="108.906" r="1.32811" transform="rotate(180 92.9653 108.906)" fill="#F7F7F7"/>
<circle cx="88.314" cy="95.6243" r="1.32811" transform="rotate(180 88.314 95.6243)" fill="#F7F7F7"/>
<circle cx="79.6841" cy="188.592" r="1.32811" transform="rotate(180 79.6841 188.592)" fill="#F7F7F7"/>
<circle cx="75.0327" cy="175.312" r="1.99217" transform="rotate(180 75.0327 175.312)" fill="#F7F7F7"/>
<circle cx="84.3356" cy="162.03" r="1.10676" transform="rotate(180 84.3356 162.03)" fill="#F7F7F7"/>
<circle cx="79.6843" cy="148.749" r="1.77082" transform="rotate(180 79.6843 148.749)" fill="#F7F7F7"/>
<circle cx="75.0327" cy="135.468" r="1.99217" transform="rotate(180 75.0327 135.468)" fill="#F7F7F7"/>
<circle cx="84.3355" cy="122.187" r="1.32811" transform="rotate(180 84.3355 122.187)" fill="#F7F7F7"/>
<circle cx="79.6839" cy="108.906" r="1.54947" transform="rotate(180 79.6839 108.906)" fill="#F7F7F7"/>
<circle cx="75.0331" cy="95.6246" r="1.54947" transform="rotate(180 75.0331 95.6246)" fill="#F7F7F7"/>
<circle cx="66.4032" cy="188.592" r="1.54947" transform="rotate(180 66.4032 188.592)" fill="#F7F7F7"/>
<circle cx="61.7518" cy="175.311" r="2.21352" transform="rotate(180 61.7518 175.311)" fill="#F7F7F7"/>
<circle cx="71.0545" cy="162.03" r="1.54947" transform="rotate(180 71.0545 162.03)" fill="#F7F7F7"/>
<circle cx="66.4033" cy="148.749" r="1.99217" transform="rotate(180 66.4033 148.749)" fill="#F7F7F7"/>
<circle cx="61.7518" cy="135.467" r="1.54947" transform="rotate(180 61.7518 135.467)" fill="#F7F7F7"/>
<circle cx="71.0544" cy="122.187" r="1.77082" transform="rotate(180 71.0544 122.187)" fill="#F7F7F7"/>
<circle cx="66.403" cy="108.905" r="1.77082" transform="rotate(180 66.403 108.905)" fill="#F7F7F7"/>
<circle cx="61.752" cy="95.6243" r="1.32811" transform="rotate(180 61.752 95.6243)" fill="#F7F7F7"/>
<circle cx="48.4706" cy="175.311" r="1.54947" transform="rotate(180 48.4706 175.311)" fill="#F7F7F7"/>
<circle cx="57.7735" cy="162.03" r="2.65623" transform="rotate(180 57.7735 162.03)" fill="#F7F7F7"/>
<circle cx="53.1221" cy="148.749" r="1.32811" transform="rotate(180 53.1221 148.749)" fill="#F7F7F7"/>
<circle cx="48.4709" cy="135.468" r="1.10676" transform="rotate(180 48.4709 135.468)" fill="#F7F7F7"/>
<circle cx="57.7731" cy="122.187" r="2.43487" transform="rotate(180 57.7731 122.187)" fill="#F7F7F7"/>
<circle cx="53.1221" cy="108.905" r="1.99217" transform="rotate(180 53.1221 108.905)" fill="#F7F7F7"/>
<circle cx="48.4707" cy="95.6243" r="1.99217" transform="rotate(180 48.4707 95.6243)" fill="#F7F7F7"/>
<circle cx="39.841" cy="188.592" r="1.77082" transform="rotate(180 39.841 188.592)" fill="#F7F7F7"/>
<circle cx="35.1896" cy="175.311" r="1.10676" transform="rotate(180 35.1896 175.311)" fill="#F7F7F7"/>
<circle cx="44.492" cy="162.03" r="1.54947" transform="rotate(180 44.492 162.03)" fill="#F7F7F7"/>
<circle cx="39.841" cy="148.749" r="1.10676" transform="rotate(180 39.841 148.749)" fill="#F7F7F7"/>
<circle cx="35.1895" cy="135.468" r="1.32811" transform="rotate(180 35.1895 135.468)" fill="#F7F7F7"/>
<circle cx="44.4922" cy="122.186" r="1.99217" transform="rotate(180 44.4922 122.186)" fill="#F7F7F7"/>
<circle cx="39.8412" cy="108.906" r="1.54947" transform="rotate(180 39.8412 108.906)" fill="#F7F7F7"/>
<circle cx="35.1895" cy="95.6243" r="2.65623" transform="rotate(180 35.1895 95.6243)" fill="#F7F7F7"/>
<circle cx="-0.00229275" cy="108.906" r="1.54947" fill="#F7F7F7"/>
<circle cx="4.64859" cy="122.187" r="1.54947" fill="#F7F7F7"/>
<circle cx="-0.00229275" cy="148.749" r="1.54947" fill="#F7F7F7"/>
<circle cx="4.64891" cy="162.03" r="1.99217" fill="#F7F7F7"/>
<circle cx="-0.00262046" cy="188.592" r="1.77082" fill="#F7F7F7"/>
<circle cx="4.64875" cy="201.873" r="1.77082" fill="#F7F7F7"/>
<circle cx="8.62742" cy="95.6243" r="1.99217" fill="#F7F7F7"/>
<circle cx="13.2785" cy="108.906" r="1.54947" fill="#F7F7F7"/>
<circle cx="17.9298" cy="122.187" r="2.21352" fill="#F7F7F7"/>
<circle cx="8.6271" cy="135.467" r="1.54947" fill="#F7F7F7"/>
<circle cx="13.2788" cy="148.749" r="2.65623" fill="#F7F7F7"/>
<circle cx="17.9302" cy="162.03" r="1.32811" fill="#F7F7F7"/>
<circle cx="8.62727" cy="175.311" r="1.10676" fill="#F7F7F7"/>
<circle cx="13.2786" cy="188.593" r="2.43487" fill="#F7F7F7"/>
<circle cx="17.9302" cy="201.873" r="1.99217" fill="#F7F7F7"/>
<circle cx="8.62742" cy="215.154" r="1.99217" fill="#F7F7F7"/>
<circle cx="21.9085" cy="95.6246" r="1.10676" fill="#F7F7F7"/>
<circle cx="26.5596" cy="108.906" r="1.32811" fill="#F7F7F7"/>
<circle cx="31.2112" cy="122.187" r="1.77082" fill="#F7F7F7"/>
<circle cx="21.9085" cy="135.467" r="1.10676" fill="#F7F7F7"/>
<circle cx="26.5597" cy="148.749" r="1.54947" fill="#F7F7F7"/>
<circle cx="31.2113" cy="162.03" r="1.10676" fill="#F7F7F7"/>
<circle cx="21.9082" cy="175.311" r="1.32811" fill="#F7F7F7"/>
<circle cx="26.5596" cy="188.592" r="1.99217" fill="#F7F7F7"/>
</g>
</svg>
